HIERARCHY
ROOT Hips
{
	OFFSET 0.000000 0.000000 0.000000
	CHANNELS 6 Xposition Yposition Zposition Zrotation Yrotation Xrotation 
	JOINT LHipJoint
	{
		OFFSET 0.000000 0.000000 0.000000
		CHANNELS 3 Zrotation Yrotation Xrotation
		JOINT LeftUpLeg
		{
			OFFSET 1.363060 -1.794630 0.839290
			CHANNELS 3 Zrotation Yrotation Xrotation
			JOINT LeftLeg
			{
				OFFSET 2.448110 -6.726130 0.000000
				CHANNELS 3 Zrotation Yrotation Xrotation
				JOINT LeftFoot
				{
					OFFSET 2.562200 -7.039590 0.000000
					CHANNELS 3 Zrotation Yrotation Xrotation
					JOINT LeftToeBase
					{
						OFFSET 0.157640 -0.433110 2.322550
						CHANNELS 3 Zrotation Yrotation Xrotation
						End Site
						{
							OFFSET 0.000000 0.000000 0.000000
						}
					}
				}
			}
		}
	}
	JOINT RHipJoint
	{
		OFFSET 0.000000 0.000000 0.000000
		CHANNELS 3 Zrotation Yrotation Xrotation
		JOINT RightUpLeg
		{
			OFFSET -1.305520 -1.794630 0.839290
			CHANNELS 3 Zrotation Yrotation Xrotation
			JOINT RightLeg
			{
				OFFSET -2.542530 -6.985550 0.000000
				CHANNELS 3 Zrotation Yrotation Xrotation
				JOINT RightFoot
				{
					OFFSET -2.568260 -7.056230 0.000000
					CHANNELS 3 Zrotation Yrotation Xrotation
					JOINT RightToeBase
					{
						OFFSET -0.164730 -0.452590 2.363150
						CHANNELS 3 Zrotation Yrotation Xrotation
						End Site
						{
							OFFSET 0.000000 0.000000 0.000000
						}
					}
				}
			}
		}
	}
}
MOTION
Frames: 27
Frame Time: 0.008333
-9.795839 16.917725 -0.996014 13.432310 82.462433 38.340703 -8.915583 1.172061 4.812019 -14.550054 -4.730568 -46.250969 -2.706309 0.238908 28.185953 1.928832 6.059882 -14.319307 -0.701400 0.000000 -38.099500 11.250957 -5.164430 1.183636 2.127628 -9.813968 -4.500861 0.713759 -1.450720 19.561351 -0.269609 13.947527 34.093421 9.230000 -0.000000 -76.053700
-9.571033 16.837247 -0.995014 14.170410 82.729241 38.535006 -8.989380 1.160220 4.701338 -14.497379 -4.902463 -46.026641 -2.499729 0.487408 30.942966 1.935755 6.146371 -14.745279 -0.789300 0.000000 -35.507099 11.328676 -5.212568 1.015061 1.603578 -10.793704 -4.092055 0.660690 -1.526221 21.004910 -0.334351 14.605128 34.528141 9.764700 0.000000 -74.571200
-9.346008 16.762273 -0.992522 15.385010 83.011983 39.201989 -9.037350 1.156180 4.594046 -14.541055 -5.058078 -45.590838 -2.318186 0.684349 33.472300 1.969922 6.317393 -15.376975 -0.919800 0.000000 -32.940700 11.434654 -5.248143 0.839875 1.010169 -11.830227 -3.801490 0.598490 -1.604140 22.568915 -0.416392 14.865794 34.879645 10.036400 0.000000 -73.048001
-9.120252 16.695001 -0.988501 17.024453 83.298389 40.307884 -9.054282 1.166115 4.500663 -14.670113 -5.201994 -44.940174 -2.169980 0.824615 35.652547 2.032518 6.576480 -16.193275 -1.093800 -0.000000 -30.660400 11.566943 -5.268505 0.665442 0.371687 -12.881980 -3.651970 0.525828 -1.684412 24.246852 -0.515465 14.600981 35.097432 9.945500 -0.000001 -71.555201
-8.893532 16.637361 -0.982744 19.078470 83.572535 41.848764 -9.032521 1.196113 4.425725 -14.882233 -5.338879 -44.065028 -2.060281 0.907458 37.394031 2.123432 6.922691 -17.159540 -1.312100 -0.000000 -28.859700 11.727386 -5.268509 0.495050 -0.302300 -13.920015 -3.651735 0.441831 -1.767399 26.030361 -0.631123 13.729361 35.117758 9.425500 0.000000 -70.148700
-8.665359 16.590748 -0.976004 21.296734 83.814856 43.587930 -8.979796 1.249047 4.373958 -15.143665 -5.454832 -42.992931 -1.989325 0.938729 38.656432 2.238304 7.334629 -18.233743 -1.571900 -0.000001 -27.648900 11.899816 -5.244872 0.337675 -0.961544 -14.885687 -3.808127 0.346002 -1.851974 27.902355 -0.762017 12.194706 34.870759 8.434800 0.000000 -68.840100
-8.435673 16.556087 -0.968894 23.483891 84.009962 45.331016 -8.904398 1.324686 4.344458 -15.430160 -5.538942 -41.736467 -1.954900 0.924480 39.420432 2.370898 7.789565 -19.359863 -1.866000 0.000000 -27.047000 12.070674 -5.194368 0.196381 -1.575119 -15.741101 -4.113037 0.239846 -1.937906 29.843209 -0.907176 10.021460 34.280838 7.000200 -0.000000 -67.580100
-8.204543 16.533747 -0.962240 25.415235 84.149876 46.851763 -8.820821 1.418611 4.334100 -15.711371 -5.578555 -40.312976 -1.951800 0.871521 39.693848 2.511794 8.257901 -20.471675 -2.180200 0.000000 -27.001700 12.222619 -5.117114 0.073015 -2.108923 -16.452823 -4.552791 0.127125 -2.025402 31.829357 -1.065610 7.302381 33.281554 5.212100 0.000000 -66.266200
-7.972105 16.523593 -0.957066 26.877913 84.237583 47.935479 -8.747376 1.523195 4.338318 -15.953449 -5.561659 -38.744780 -1.972463 0.786665 39.508702 2.649147 8.707012 -21.498096 -2.493900 -0.000000 -27.406800 12.337800 -5.017444 -0.031831 -2.527928 -16.997154 -5.112145 0.013645 -2.115040 33.833556 -1.236358 4.189299 31.830631 3.215100 0.000000 -64.783100
-7.738797 16.525078 -0.953810 27.825641 84.279180 48.525634 -8.693440 1.632599 4.350416 -16.142797 -5.488066 -37.038302 -2.008867 0.675416 38.904945 2.771695 9.114718 -22.364546 -2.783301 0.000000 -28.117901 12.411510 -4.899570 -0.122655 -2.829534 -17.379560 -5.769819 -0.093971 -2.208162 35.830877 -1.417898 0.888706 29.919178 1.196000 -0.000000 -63.003201
-7.504828 16.537213 -0.953559 28.104631 84.293029 48.471243 -8.678533 1.739041 4.366396 -16.241674 -5.348218 -35.234188 -2.051205 0.545769 37.955602 2.866228 9.450606 -23.008542 -3.021100 0.000000 -28.998900 12.429748 -4.773247 -0.198937 -2.976338 -17.594511 -6.517304 -0.189856 -2.304153 37.791033 -1.608796 -2.414205 27.588774 -0.678100 0.000000 -60.931500
-7.270769 16.558866 -0.956329 27.785342 84.290598 47.834620 -8.705245 1.841349 4.380776 -16.247416 -5.149435 -33.346942 -2.091687 0.404713 36.726787 2.924262 9.705563 -23.375316 -3.185601 0.000000 -29.932900 12.397590 -4.642869 -0.267175 -2.979855 -17.674035 -7.339368 -0.269504 -2.402820 39.692208 -1.805160 -5.532061 24.906361 -2.258300 0.000000 -58.503900
-7.036851 16.588641 -0.962476 26.846046 84.289100 46.599397 -8.781849 1.938749 4.391989 -16.141680 -4.891233 -31.423543 -2.122925 0.261373 35.305333 2.938484 9.866183 -23.432320 -3.259500 -0.000000 -30.860300 12.313289 -4.514791 -0.327874 -2.823093 -17.638067 -8.236678 -0.330596 -2.501169 41.509624 -2.003028 -8.345547 21.978148 -3.463800 0.000000 -55.873600
-6.803455 16.625217 -0.971639 25.362245 84.300728 44.843002 -8.906412 2.034685 4.398968 -15.926016 -4.580832 -29.501359 -2.140232 0.124346 33.770263 2.906740 9.931743 -23.165793 -3.235401 0.000000 -31.768500 12.184251 -4.391075 -0.384322 -2.512314 -17.523856 -9.208562 -0.372221 -2.596157 43.224848 -2.195781 -10.771203 18.910865 -4.263100 -0.000000 -53.128300
-6.570803 16.667267 -0.983248 23.408802 84.336783 42.645760 -9.073838 2.133737 4.402021 -15.605031 -4.225007 -27.622498 -2.141263 0.001669 32.197211 2.830456 9.903664 -22.584409 -3.114800 -0.000000 -32.687500 12.019104 -4.272045 -0.438498 -2.052677 -17.367308 -10.258115 -0.394631 -2.684015 44.819394 -2.376177 -12.772225 15.813955 -4.676099 -0.000000 -50.438900
-6.339081 16.713633 -0.996374 21.080319 84.406880 40.108649 -9.274069 2.240943 4.403203 -15.191606 -3.834051 -25.827386 -2.126028 -0.100554 30.649890 2.714825 9.787720 -21.714559 -2.908100 0.000000 -33.673000 11.829334 -4.156309 -0.491131 -1.455849 -17.203195 -11.391112 -0.398572 -2.761342 46.276977 -2.536735 -14.342263 12.784976 -4.756600 0.000001 -47.973900
-6.108464 16.763351 -1.010171 18.409273 84.521476 37.268390 -9.498842 2.359521 4.403065 -14.692619 -3.411658 -24.150577 -2.096154 -0.177883 29.180787 2.566048 9.585203 -20.597376 -2.630900 -0.000000 -34.800800 11.622929 -4.042809 -0.544137 -0.727403 -17.059774 -12.606152 -0.384305 -2.825689 47.581452 -2.669793 -15.491833 9.886928 -4.572299 0.000000 -45.721600
-5.878960 16.815602 -1.023330 15.512088 84.685791 34.246914 -9.731663 2.492057 4.404860 -14.132966 -2.976799 -22.614658 -2.054598 -0.229804 27.818614 2.393961 9.310303 -19.276632 -2.303900 -0.000000 -36.143900 11.414530 -3.928511 -0.596280 0.108506 -16.958191 -13.905780 -0.352687 -2.875773 48.715642 -2.770764 -16.249109 7.192570 -4.204400 -0.000000 -43.927800
-5.650675 16.869742 -1.034753 12.461184 84.904585 31.118193 -9.959338 2.638221 4.410159 -13.532830 -2.546775 -21.229083 -2.004366 -0.257782 26.576473 2.207810 8.976401 -17.795750 -1.947701 -0.000000 -37.772900 11.214529 -3.811686 -0.647497 1.029883 -16.909447 -15.284201 -0.303825 -2.912250 49.665187 -2.835818 -16.644247 4.738354 -3.725300 0.000000 -42.622600
-5.423609 16.925329 -1.044064 9.110963 85.178763 27.737287 -10.177521 2.795647 4.418283 -12.891755 -2.124694 -20.003171 -1.947560 -0.263291 25.462953 2.014129 8.587110 -16.196664 -1.580100 0.000000 -39.750799 11.024291 -3.692188 -0.696112 2.037183 -16.900069 -16.728258 -0.238431 -2.934795 50.413047 -2.864697 -16.722422 2.544213 -3.199900 0.000000 -41.773600
-5.197816 16.981916 -1.050372 5.500142 85.503079 24.140176 -10.372175 2.961436 4.430393 -12.237118 -1.738480 -18.920150 -1.885876 -0.251147 24.460518 1.822173 8.168999 -14.505317 -1.217300 0.000000 -42.096500 10.854424 -3.568211 -0.740150 3.096346 -16.919617 -18.227864 -0.156785 -2.946600 50.953720 -2.858054 -16.520924 0.617425 -2.676000 0.000000 -41.384500
-4.973343 17.039088 -1.053413 1.486815 85.868737 20.181780 -10.535837 3.131390 4.445003 -11.582028 -1.405263 -17.960816 -1.819780 -0.225499 23.550498 1.638358 7.741679 -12.741010 -0.870600 0.000000 -44.791500 10.709405 -3.439344 -0.777269 4.187705 -16.942436 -19.768024 -0.059119 -2.950606 51.285506 -2.818915 -16.083297 -1.057305 -2.185100 0.000000 -41.338300
-4.750084 17.096502 -1.053928 -3.618476 86.260923 15.171010 -10.665551 3.302023 4.457097 -10.906928 -1.115851 -17.117479 -1.748145 -0.188566 22.726459 1.465187 7.306191 -10.921784 -0.546800 -0.000000 -47.782700 10.590129 -3.307379 -0.801173 5.327900 -16.918599 -21.328723 0.054041 -2.947388 51.404083 -2.754072 -15.468152 -2.504532 -1.747500 -0.000001 -41.492300
-4.528185 17.153625 -1.051852 -10.301032 86.675724 8.615550 -10.747058 3.464653 4.461422 -10.229785 -0.890424 -16.352770 -1.669097 -0.147255 21.964828 1.307421 6.886050 -9.049250 -0.249901 -0.000000 -50.951300 10.508185 -3.178667 -0.807279 6.486460 -16.824698 -22.896994 0.186289 -2.945936 51.319889 -2.668702 -14.714104 -3.765537 -1.365900 0.000000 -41.724600
-4.307628 17.209964 -1.047705 -19.505862 87.124913 -0.434342 -10.779452 3.600034 4.448507 -9.554824 -0.734523 -15.635501 -1.578616 -0.110918 21.255815 1.165700 6.488613 -7.122783 0.019200 0.000000 -54.156200 10.461613 -3.074979 -0.788334 7.647757 -16.638192 -24.463617 0.345412 -2.960292 51.038056 -2.569826 -13.864561 -4.884642 -1.037500 -0.000000 -41.959800
-4.088164 17.264950 -1.042674 -32.743188 87.625901 -13.491756 -10.807502 3.671054 4.407625 -8.877851 -0.633415 -14.948392 -1.470266 -0.091487 20.609081 1.034966 6.096307 -5.142485 0.260100 -0.000000 -57.260200 10.403268 -3.042515 -0.735050 8.804782 -16.337631 -26.025927 0.542055 -3.008028 50.554507 -2.467095 -12.969908 -5.903454 -0.757800 -0.000000 -42.198801
-3.869761 17.317940 -1.036947 -48.823294 88.100885 -29.375510 -10.935309 3.666150 4.348390 -8.264065 -0.579719 -14.267761 -1.346326 -0.085727 19.999658 0.916047 5.733144 -3.103166 0.474900 0.000000 -60.120800 10.231486 -3.085560 -0.655418 9.874474 -15.909828 -27.584019 0.765575 -3.077306 49.894960 -2.364814 -12.042480 -6.867651 -0.517200 -0.000000 -42.530800
